<svg xmlns="http://www.w3.org/2000/svg" xmlns:xlink="http://www.w3.org/1999/xlink" width="50" height="50" viewBox="0 0 50 50">
  <defs>
    <style>
      .cls-1 {
        fill: url(#linear-gradient);
      }
    </style>
    <linearGradient id="linear-gradient" x1="0.5" x2="0.5" y2="1" gradientUnits="objectBoundingBox">
      <stop offset="0" stop-color="#afddff"/>
      <stop offset="0.027" stop-color="#acdaff"/>
      <stop offset="0.686" stop-color="#6f9cff"/>
      <stop offset="1" stop-color="#5885ff"/>
    </linearGradient>
  </defs>
  <g id="playfair" transform="translate(-1631 -1979.5)">
    <path id="Path_324" data-name="Path 324" class="cls-1" d="M32,36a17.888,17.888,0,0,1-7-1.412A18.008,18.008,0,0,0,25,1.412,18,18,0,0,1,39.006,34.585,17.887,17.887,0,0,1,32,36ZM18,36A18,18,0,0,1,10.994,1.415,18.059,18.059,0,0,1,25,1.412a18.008,18.008,0,0,0,0,33.176A17.888,17.888,0,0,1,18,36Z" transform="translate(1674 1979.5) rotate(90)"/>
    <path id="Path_323" data-name="Path 323" class="cls-1" d="M32,29.333a21.452,21.452,0,0,1-7-1.15c6.682-2.3,11-7.605,11-13.516S31.682,3.451,25,1.15a21.871,21.871,0,0,1,14.006,0A18.607,18.607,0,0,1,44.728,4.3a14.857,14.857,0,0,1,3.858,4.662,12.227,12.227,0,0,1,0,11.418,14.857,14.857,0,0,1-3.858,4.662,18.606,18.606,0,0,1-5.721,3.143A21.45,21.45,0,0,1,32,29.333Zm-14,0a21.45,21.45,0,0,1-7.006-1.153,18.607,18.607,0,0,1-5.721-3.143,14.857,14.857,0,0,1-3.858-4.662,12.227,12.227,0,0,1,0-11.418A14.857,14.857,0,0,1,5.272,4.3a18.608,18.608,0,0,1,5.721-3.143A21.871,21.871,0,0,1,25,1.15c-6.682,2.3-11,7.605-11,13.516s4.318,11.216,11,13.516A21.452,21.452,0,0,1,18,29.333Z" transform="translate(1631 1989.833)"/>
    <circle id="Ellipse_5" data-name="Ellipse 5" class="cls-1" cx="4.667" cy="4.667" r="4.667" transform="translate(1660.334 1999.833) rotate(90)"/>
  </g>
</svg>
