<svg xmlns="http://www.w3.org/2000/svg" width="18.432" height="11.166" viewBox="0 0 18.432 11.166">
  <defs>
    <style>
      .cls-1 {
        fill: #040505;
      }
    </style>
  </defs>
  <path id="arrowUp" class="cls-1" d="M352.916,460.7l-.934.934a1,1,0,0,1-1.447-.015L344,454.791l-6.536,6.824a1,1,0,0,1-1.447.015l-.934-.934a1,1,0,0,1,0-1.428l8.2-8.2a.992.992,0,0,1,.437-.258.968.968,0,0,1,.57,0,.991.991,0,0,1,.437.258l8.2,8.2A1,1,0,0,1,352.916,460.7Z" transform="translate(-334.783 -450.765)"/>
</svg>
