<svg xmlns="http://www.w3.org/2000/svg" xmlns:xlink="http://www.w3.org/1999/xlink" width="38" height="38" viewBox="0 0 38 38">
  <defs>
    <style>
      .cls-1 {
        fill: url(#linear-gradient);
      }

      .cls-2 {
        fill: #c5c7f0;
        stroke: #c5c7f0;
        stroke-width: 0.2px;
      }
    </style>
    <linearGradient id="linear-gradient" x1="0.5" x2="0.5" y2="1" gradientUnits="objectBoundingBox">
      <stop offset="0" stop-color="#474bd9"/>
      <stop offset="1" stop-color="#6b88e8"/>
    </linearGradient>
  </defs>
  <g id="attachment" transform="translate(-5168 -2594)">
    <rect id="Rectangle_2314" data-name="Rectangle 2314" class="cls-1" width="38" height="38" rx="7" transform="translate(5206 2632) rotate(180)"/>
    <path id="Fill_1" data-name="Fill 1" class="cls-2" d="M1.5,19.032a5.161,5.161,0,0,1,0-7.282L12.155,1.1a3.814,3.814,0,0,1,5.507.162,3.812,3.812,0,0,1,.162,5.507L7.818,16.774a2.412,2.412,0,1,1-3.411-3.411l6.778-6.778a.585.585,0,1,1,.829.827l-6.778,6.78a1.24,1.24,0,0,0,1.753,1.753L17,5.939a2.672,2.672,0,0,0-.162-3.853,2.673,2.673,0,0,0-3.853-.16L2.33,12.578a3.979,3.979,0,0,0,5.629,5.627L18.611,7.553a.585.585,0,0,1,.827.827L8.786,19.032a5.162,5.162,0,0,1-7.283,0Z" transform="translate(5177.5 2602.92)"/>
  </g>
</svg>
