<svg xmlns="http://www.w3.org/2000/svg" xmlns:xlink="http://www.w3.org/1999/xlink" width="55.98" height="57.95" viewBox="0 0 55.98 57.95">
  <defs>
    <style>
      .cls-1 {
        fill: url(#linear-gradient);
      }

      .cls-2 {
        fill: url(#linear-gradient-3);
      }
    </style>
    <linearGradient id="linear-gradient" x1="0.5" y1="1" x2="0.5" gradientUnits="objectBoundingBox">
      <stop offset="0" stop-color="#58a0ff"/>
      <stop offset="0.454" stop-color="#5888ff"/>
      <stop offset="1" stop-color="#5966ff"/>
    </linearGradient>
    <linearGradient id="linear-gradient-3" x1="0.5" y1="0" x2="0.5" y2="1" xlink:href="#linear-gradient"/>
  </defs>
  <g id="brand" transform="translate(-109.15 -215.11)">
    <g id="Group_101" data-name="Group 101">
      <g id="Brand-2" data-name="Brand">
        <path id="Path_315" data-name="Path 315" class="cls-1" d="M143.15,234.06v-10a3,3,0,0,1,3-3h8.31a27.691,27.691,0,0,1,4.69,4.68v8.32a3.009,3.009,0,0,1-3,3h-10A3,3,0,0,1,143.15,234.06Z"/>
        <path id="Path_316" data-name="Path 316" class="cls-1" d="M165.13,245.87a28,28,0,0,1-55.98-.81v-2a27.98,27.98,0,0,1,26.44-27.95,10.219,10.219,0,0,0-.44,2.95v18c0,.34.02.67.05,1h-3.05a3,3,0,0,0-3,3v8a3,3,0,0,0,3,3h8a3.009,3.009,0,0,0,3-3v-2.2a10.124,10.124,0,0,0,2,.2h18A10.72,10.72,0,0,0,165.13,245.87Z"/>
        <path id="Path_317" data-name="Path 317" class="cls-2" d="M159.15,224.06v10a3.009,3.009,0,0,1-3,3h-10a3,3,0,0,1-3-3v-10a3,3,0,0,1,3-3h10A3,3,0,0,1,159.15,224.06Z"/>
        <path id="Path_318" data-name="Path 318" class="cls-2" d="M159.15,224.06v10a3.009,3.009,0,0,1-3,3h-10a3,3,0,0,1-3-3v-10a3,3,0,0,1,3-3h10A3,3,0,0,1,159.15,224.06Z"/>
      </g>
    </g>
  </g>
</svg>
