<svg xmlns="http://www.w3.org/2000/svg" width="18.752" height="17.146" viewBox="0 0 18.752 17.146">
  <defs>
    <style>
      .cls-1 {
        fill: #fff1f9;
        fill-rule: evenodd;
      }
    </style>
  </defs>
  <path id="Clip" class="cls-1" d="M279.328,959.483l-.088-.087a4.977,4.977,0,0,0-6.971.058l-8.88,8.882A4.735,4.735,0,0,0,262,971.314a3.836,3.836,0,0,0,3.836,3.833h0a3.812,3.812,0,0,0,2.713-1.125l7.666-7.662a2.7,2.7,0,0,0-3.816-3.816l-5.871,5.868a.8.8,0,1,0,1.131,1.141h0l5.876-5.877a1.091,1.091,0,1,1,1.542,1.543l-7.665,7.666a2.216,2.216,0,0,1-1.575.654h0a2.228,2.228,0,0,1-2.229-2.225,3.226,3.226,0,0,1,.919-1.841l8.879-8.882a3.367,3.367,0,0,1,4.725-.032l.085.086a3.37,3.37,0,0,1-.054,4.706l-7.349,7.349a.8.8,0,1,0,1.132,1.14h0l7.353-7.354a4.978,4.978,0,0,0,.031-7Z" transform="translate(-262 -958)"/>
</svg>
