<svg xmlns="http://www.w3.org/2000/svg" xmlns:xlink="http://www.w3.org/1999/xlink" width="1610.48" height="633.32" viewBox="0 0 1610.48 633.32">
  <defs>
    <style>
      .cls-1 {
        fill: url(#linear-gradient);
      }

      .cls-2 {
        fill: url(#linear-gradient-2);
      }

      .cls-3 {
        fill: url(#linear-gradient-9);
      }

      .cls-4 {
        fill: url(#linear-gradient-10);
      }

      .cls-5 {
        filter: url(#Path_170-6);
      }

      .cls-6 {
        filter: url(#Path_170-5);
      }

      .cls-7 {
        filter: url(#Path_170-4);
      }

      .cls-8 {
        filter: url(#Path_170-3);
      }

      .cls-9 {
        filter: url(#Path_170-2);
      }

      .cls-10 {
        filter: url(#Path_170);
      }
    </style>
    <linearGradient id="linear-gradient" x1="0.5" y1="1" x2="-0.17" y2="-0.384" gradientUnits="objectBoundingBox">
      <stop offset="0" stop-color="#afddff"/>
      <stop offset="0.027" stop-color="#acdaff"/>
      <stop offset="0.686" stop-color="#6f9cff"/>
      <stop offset="1" stop-color="#5885ff"/>
    </linearGradient>
    <filter id="Path_170" x="1505.895" y="191.701" width="104.585" height="104.585" filterUnits="userSpaceOnUse">
      <feOffset dy="20" input="SourceAlpha"/>
      <feGaussianBlur stdDeviation="10" result="blur"/>
      <feFlood flood-opacity="0.161"/>
      <feComposite operator="in" in2="blur"/>
      <feComposite in="SourceGraphic"/>
    </filter>
    <linearGradient id="linear-gradient-2" x2="0.5" y2="0" xlink:href="#linear-gradient"/>
    <filter id="Path_170-2" x="0" y="481.701" width="104.585" height="104.585" filterUnits="userSpaceOnUse">
      <feOffset dy="20" input="SourceAlpha"/>
      <feGaussianBlur stdDeviation="10" result="blur-2"/>
      <feFlood flood-opacity="0.161"/>
      <feComposite operator="in" in2="blur-2"/>
      <feComposite in="SourceGraphic"/>
    </filter>
    <filter id="Path_170-3" x="866.501" y="531.568" width="106.32" height="101.752" filterUnits="userSpaceOnUse">
      <feOffset dy="20" input="SourceAlpha"/>
      <feGaussianBlur stdDeviation="10" result="blur-3"/>
      <feFlood flood-opacity="0.161"/>
      <feComposite operator="in" in2="blur-3"/>
      <feComposite in="SourceGraphic"/>
    </filter>
    <filter id="Path_170-4" x="635.501" y="55.568" width="106.32" height="101.752" filterUnits="userSpaceOnUse">
      <feOffset dy="20" input="SourceAlpha"/>
      <feGaussianBlur stdDeviation="10" result="blur-4"/>
      <feFlood flood-opacity="0.161"/>
      <feComposite operator="in" in2="blur-4"/>
      <feComposite in="SourceGraphic"/>
    </filter>
    <linearGradient id="linear-gradient-9" y1="0" x2="-0.17" y2="1.384" xlink:href="#linear-gradient"/>
    <filter id="Path_170-5" x="1189.285" y="0" width="93.936" height="90.589" filterUnits="userSpaceOnUse">
      <feOffset dy="20" input="SourceAlpha"/>
      <feGaussianBlur stdDeviation="10" result="blur-5"/>
      <feFlood flood-opacity="0.161"/>
      <feComposite operator="in" in2="blur-5"/>
      <feComposite in="SourceGraphic"/>
    </filter>
    <linearGradient id="linear-gradient-10" y1="0" x2="0.5" y2="1" xlink:href="#linear-gradient"/>
    <filter id="Path_170-6" x="223.099" y="161" width="93.937" height="90.59" filterUnits="userSpaceOnUse">
      <feOffset dy="20" input="SourceAlpha"/>
      <feGaussianBlur stdDeviation="10" result="blur-6"/>
      <feFlood flood-opacity="0.161"/>
      <feComposite operator="in" in2="blur-6"/>
      <feComposite in="SourceGraphic"/>
    </filter>
  </defs>
  <g id="dosage" transform="translate(795.761 -1559.651)">
    <g id="Group_103" data-name="Group 103" transform="translate(769.986 1761.094) rotate(45)">
      <g class="cls-10" transform="matrix(0.71, -0.71, 0.71, 0.71, -1249.59, 964.71)">
        <path id="Path_170-7" data-name="Path 170" class="cls-1" d="M8.915,31.245v.013a5.959,5.959,0,0,0,.116.643l.005.025a6.346,6.346,0,0,0,.184.62l.011.033c.072.2.156.4.248.595l.019.042c.076.158.159.313.247.466l.051.089q.134.225.284.443c.02.029.041.057.061.086q.108.152.225.3l.07.089c.1.12.2.237.3.353.02.023.043.045.064.068q.122.132.251.26l.1.1q.132.127.271.25l.068.061q.173.15.355.292l.094.071q.143.109.291.213l.111.077c.137.094.276.185.42.272l.037.022c.133.08.268.157.406.231l.108.057q.271.143.554.27l.09.039c.2.086.394.166.6.24l.068.023c.145.051.292.1.44.144l.13.039c.169.049.34.1.513.136l.045.009c.16.037.323.069.486.1l.138.024c.179.029.358.055.54.075.224.024.445.039.664.047.07,0,.138,0,.207,0,.151,0,.3,0,.448,0l.228-.01c.144-.008.286-.019.428-.034.068-.007.138-.013.206-.021q.261-.033.515-.081L19.7,38c.2-.04.4-.088.591-.142.056-.015.11-.034.165-.05.138-.042.274-.086.407-.134.114-.041.227-.082.338-.128l-8.813,3.688q-.121.05-.244.1c-.03.011-.063.02-.093.031-.133.048-.269.093-.407.134-.055.017-.109.035-.165.05-.193.054-.39.1-.591.142l-.012,0c-.026.005-.053.007-.078.012q-.254.048-.516.081c-.068.009-.136.015-.2.021q-.212.022-.429.034c-.075,0-.15.007-.227.009-.149,0-.3,0-.449,0-.069,0-.137,0-.206,0-.219-.009-.44-.023-.664-.047-.182-.02-.361-.046-.54-.075L7.424,41.7c-.164-.029-.327-.061-.488-.1l-.043-.009c-.173-.041-.344-.087-.514-.136l-.13-.039q-.223-.067-.44-.145l-.053-.017-.014-.006c-.2-.073-.4-.154-.6-.24l-.09-.04c-.188-.084-.373-.175-.554-.27l-.048-.024-.06-.034c-.138-.075-.274-.151-.407-.232l-.036-.021c-.143-.087-.283-.179-.42-.273l-.047-.031-.063-.046c-.1-.07-.2-.141-.292-.214l-.093-.071q-.182-.142-.355-.292l-.017-.013L2.612,39.4q-.139-.123-.272-.25l-.1-.1q-.129-.128-.251-.26c-.016-.017-.034-.034-.05-.051l-.014-.017c-.1-.115-.2-.233-.3-.352l-.07-.089q-.116-.148-.224-.3c-.014-.02-.03-.039-.044-.058L1.27,37.9c-.1-.145-.2-.293-.285-.443l-.051-.088c-.088-.154-.172-.308-.247-.466l-.007-.014c0-.009-.007-.019-.012-.028-.092-.2-.176-.394-.248-.595l-.011-.033a6.322,6.322,0,0,1-.184-.62c0-.008,0-.016-.005-.024A5.981,5.981,0,0,1,.1,34.946l0-.013a5.7,5.7,0,0,1-.041-.666L0,8.918A5.281,5.281,0,0,1,1.275,5.44a5.821,5.821,0,0,1,.589-.6c.106-.094.216-.184.329-.272a6.83,6.83,0,0,1,1.528-.88L12.535,0A5.656,5.656,0,0,0,8.813,5.229l.061,25.35A5.787,5.787,0,0,0,8.915,31.245Z" transform="translate(1565.49 201.7) rotate(45)"/>
      </g>
      <path id="Path_171" data-name="Path 171" class="cls-2" d="M8.1,38.734c4.432.479,8.017-2.115,8.009-5.8l-.061-25.35C16.04,3.908,12.44.536,8.008.057S-.009,2.173,0,5.853L.061,31.2C.07,34.883,3.67,38.255,8.1,38.734Z" transform="translate(8.352 0)"/>
    </g>
    <g id="Group_104" data-name="Group 104" transform="translate(-735.908 2051.094) rotate(45)">
      <g class="cls-9" transform="matrix(0.71, -0.71, 0.71, 0.71, -389.82, -305.18)">
        <path id="Path_170-8" data-name="Path 170" class="cls-1" d="M8.915,31.245v.013a5.959,5.959,0,0,0,.116.643l.005.025a6.346,6.346,0,0,0,.184.62l.011.033c.072.2.156.4.248.595l.019.042c.076.158.159.313.247.466l.051.089q.134.225.284.443c.02.029.041.057.061.086q.108.152.225.3l.07.089c.1.12.2.237.3.353.02.023.043.045.064.068q.122.132.251.26l.1.1q.132.127.271.25l.068.061q.173.15.355.292l.094.071q.143.109.291.213l.111.077c.137.094.276.185.42.272l.037.022c.133.08.268.157.406.231l.108.057q.271.143.554.27l.09.039c.2.086.394.166.6.24l.068.023c.145.051.292.1.44.144l.13.039c.169.049.34.1.513.136l.045.009c.16.037.323.069.486.1l.138.024c.179.029.358.055.54.075.224.024.445.039.664.047.07,0,.138,0,.207,0,.151,0,.3,0,.448,0l.228-.01c.144-.008.286-.019.428-.034.068-.007.138-.013.206-.021q.261-.033.515-.081L19.7,38c.2-.04.4-.088.591-.142.056-.015.11-.034.165-.05.138-.042.274-.086.407-.134.114-.041.227-.082.338-.128l-8.813,3.688q-.121.05-.244.1c-.03.011-.063.02-.093.031-.133.048-.269.093-.407.134-.055.017-.109.035-.165.05-.193.054-.39.1-.591.142l-.012,0c-.026.005-.053.007-.078.012q-.254.048-.516.081c-.068.009-.136.015-.2.021q-.212.022-.429.034c-.075,0-.15.007-.227.009-.149,0-.3,0-.449,0-.069,0-.137,0-.206,0-.219-.009-.44-.023-.664-.047-.182-.02-.361-.046-.54-.075L7.424,41.7c-.164-.029-.327-.061-.488-.1l-.043-.009c-.173-.041-.344-.087-.514-.136l-.13-.039q-.223-.067-.44-.145l-.053-.017-.014-.006c-.2-.073-.4-.154-.6-.24l-.09-.04c-.188-.084-.373-.175-.554-.27l-.048-.024-.06-.034c-.138-.075-.274-.151-.407-.232l-.036-.021c-.143-.087-.283-.179-.42-.273l-.047-.031-.063-.046c-.1-.07-.2-.141-.292-.214l-.093-.071q-.182-.142-.355-.292l-.017-.013L2.612,39.4q-.139-.123-.272-.25l-.1-.1q-.129-.128-.251-.26c-.016-.017-.034-.034-.05-.051l-.014-.017c-.1-.115-.2-.233-.3-.352l-.07-.089q-.116-.148-.224-.3c-.014-.02-.03-.039-.044-.058L1.27,37.9c-.1-.145-.2-.293-.285-.443l-.051-.088c-.088-.154-.172-.308-.247-.466l-.007-.014c0-.009-.007-.019-.012-.028-.092-.2-.176-.394-.248-.595l-.011-.033a6.322,6.322,0,0,1-.184-.62c0-.008,0-.016-.005-.024A5.981,5.981,0,0,1,.1,34.946l0-.013a5.7,5.7,0,0,1-.041-.666L0,8.918A5.281,5.281,0,0,1,1.275,5.44a5.821,5.821,0,0,1,.589-.6c.106-.094.216-.184.329-.272a6.83,6.83,0,0,1,1.528-.88L12.535,0A5.656,5.656,0,0,0,8.813,5.229l.061,25.35A5.787,5.787,0,0,0,8.915,31.245Z" transform="translate(59.59 491.7) rotate(45)"/>
      </g>
      <path id="Path_171-2" data-name="Path 171" class="cls-2" d="M8.1,38.734c4.432.479,8.017-2.115,8.009-5.8l-.061-25.35C16.04,3.908,12.44.536,8.008.057S-.009,2.173,0,5.853L.061,31.2C.07,34.883,3.67,38.255,8.1,38.734Z" transform="translate(8.352 0)"/>
    </g>
    <g id="Group_105" data-name="Group 105" transform="matrix(0.588, -0.809, 0.809, 0.588, 100.443, 2118.156)">
      <g class="cls-8" transform="matrix(0.59, 0.81, -0.81, 0.59, -74.94, -1053.33)">
        <path id="Path_170-9" data-name="Path 170" class="cls-1" d="M8.915,31.245v.013a5.959,5.959,0,0,0,.116.643l.005.025a6.346,6.346,0,0,0,.184.62l.011.033c.072.2.156.4.248.595l.019.042c.076.158.159.313.247.466l.051.089q.134.225.284.443c.02.029.041.057.061.086q.108.152.225.3l.07.089c.1.12.2.237.3.353.02.023.043.045.064.068q.122.132.251.26l.1.1q.132.127.271.25l.068.061q.173.15.355.292l.094.071q.143.109.291.213l.111.077c.137.094.276.185.42.272l.037.022c.133.08.268.157.406.231l.108.057q.271.143.554.27l.09.039c.2.086.394.166.6.24l.068.023c.145.051.292.1.44.144l.13.039c.169.049.34.1.513.136l.045.009c.16.037.323.069.486.1l.138.024c.179.029.358.055.54.075.224.024.445.039.664.047.07,0,.138,0,.207,0,.151,0,.3,0,.448,0l.228-.01c.144-.008.286-.019.428-.034.068-.007.138-.013.206-.021q.261-.033.515-.081L19.7,38c.2-.04.4-.088.591-.142.056-.015.11-.034.165-.05.138-.042.274-.086.407-.134.114-.041.227-.082.338-.128l-8.813,3.688q-.121.05-.244.1c-.03.011-.063.02-.093.031-.133.048-.269.093-.407.134-.055.017-.109.035-.165.05-.193.054-.39.1-.591.142l-.012,0c-.026.005-.053.007-.078.012q-.254.048-.516.081c-.068.009-.136.015-.2.021q-.212.022-.429.034c-.075,0-.15.007-.227.009-.149,0-.3,0-.449,0-.069,0-.137,0-.206,0-.219-.009-.44-.023-.664-.047-.182-.02-.361-.046-.54-.075L7.424,41.7c-.164-.029-.327-.061-.488-.1l-.043-.009c-.173-.041-.344-.087-.514-.136l-.13-.039q-.223-.067-.44-.145l-.053-.017-.014-.006c-.2-.073-.4-.154-.6-.24l-.09-.04c-.188-.084-.373-.175-.554-.27l-.048-.024-.06-.034c-.138-.075-.274-.151-.407-.232l-.036-.021c-.143-.087-.283-.179-.42-.273l-.047-.031-.063-.046c-.1-.07-.2-.141-.292-.214l-.093-.071q-.182-.142-.355-.292l-.017-.013L2.612,39.4q-.139-.123-.272-.25l-.1-.1q-.129-.128-.251-.26c-.016-.017-.034-.034-.05-.051l-.014-.017c-.1-.115-.2-.233-.3-.352l-.07-.089q-.116-.148-.224-.3c-.014-.02-.03-.039-.044-.058L1.27,37.9c-.1-.145-.2-.293-.285-.443l-.051-.088c-.088-.154-.172-.308-.247-.466l-.007-.014c0-.009-.007-.019-.012-.028-.092-.2-.176-.394-.248-.595l-.011-.033a6.322,6.322,0,0,1-.184-.62c0-.008,0-.016-.005-.024A5.981,5.981,0,0,1,.1,34.946l0-.013a5.7,5.7,0,0,1-.041-.666L0,8.918A5.281,5.281,0,0,1,1.275,5.44a5.821,5.821,0,0,1,.589-.6c.106-.094.216-.184.329-.272a6.83,6.83,0,0,1,1.528-.88L12.535,0A5.656,5.656,0,0,0,8.813,5.229l.061,25.35A5.787,5.787,0,0,0,8.915,31.245Z" transform="matrix(0.59, -0.81, 0.81, 0.59, 896.5, 558.72)"/>
      </g>
      <path id="Path_171-3" data-name="Path 171" class="cls-2" d="M8.1,38.734c4.432.479,8.017-2.115,8.009-5.8l-.061-25.35C16.04,3.908,12.44.536,8.008.057S-.009,2.173,0,5.853L.061,31.2C.07,34.883,3.67,38.255,8.1,38.734Z" transform="translate(8.352 0)"/>
    </g>
    <g id="Group_106" data-name="Group 106" transform="matrix(0.588, -0.809, 0.809, 0.588, -130.557, 1642.156)">
      <g class="cls-7" transform="matrix(0.59, 0.81, -0.81, 0.59, -324.25, -586.66)">
        <path id="Path_170-10" data-name="Path 170" class="cls-1" d="M8.915,31.245v.013a5.959,5.959,0,0,0,.116.643l.005.025a6.346,6.346,0,0,0,.184.62l.011.033c.072.2.156.4.248.595l.019.042c.076.158.159.313.247.466l.051.089q.134.225.284.443c.02.029.041.057.061.086q.108.152.225.3l.07.089c.1.12.2.237.3.353.02.023.043.045.064.068q.122.132.251.26l.1.1q.132.127.271.25l.068.061q.173.15.355.292l.094.071q.143.109.291.213l.111.077c.137.094.276.185.42.272l.037.022c.133.08.268.157.406.231l.108.057q.271.143.554.27l.09.039c.2.086.394.166.6.24l.068.023c.145.051.292.1.44.144l.13.039c.169.049.34.1.513.136l.045.009c.16.037.323.069.486.1l.138.024c.179.029.358.055.54.075.224.024.445.039.664.047.07,0,.138,0,.207,0,.151,0,.3,0,.448,0l.228-.01c.144-.008.286-.019.428-.034.068-.007.138-.013.206-.021q.261-.033.515-.081L19.7,38c.2-.04.4-.088.591-.142.056-.015.11-.034.165-.05.138-.042.274-.086.407-.134.114-.041.227-.082.338-.128l-8.813,3.688q-.121.05-.244.1c-.03.011-.063.02-.093.031-.133.048-.269.093-.407.134-.055.017-.109.035-.165.05-.193.054-.39.1-.591.142l-.012,0c-.026.005-.053.007-.078.012q-.254.048-.516.081c-.068.009-.136.015-.2.021q-.212.022-.429.034c-.075,0-.15.007-.227.009-.149,0-.3,0-.449,0-.069,0-.137,0-.206,0-.219-.009-.44-.023-.664-.047-.182-.02-.361-.046-.54-.075L7.424,41.7c-.164-.029-.327-.061-.488-.1l-.043-.009c-.173-.041-.344-.087-.514-.136l-.13-.039q-.223-.067-.44-.145l-.053-.017-.014-.006c-.2-.073-.4-.154-.6-.24l-.09-.04c-.188-.084-.373-.175-.554-.27l-.048-.024-.06-.034c-.138-.075-.274-.151-.407-.232l-.036-.021c-.143-.087-.283-.179-.42-.273l-.047-.031-.063-.046c-.1-.07-.2-.141-.292-.214l-.093-.071q-.182-.142-.355-.292l-.017-.013L2.612,39.4q-.139-.123-.272-.25l-.1-.1q-.129-.128-.251-.26c-.016-.017-.034-.034-.05-.051l-.014-.017c-.1-.115-.2-.233-.3-.352l-.07-.089q-.116-.148-.224-.3c-.014-.02-.03-.039-.044-.058L1.27,37.9c-.1-.145-.2-.293-.285-.443l-.051-.088c-.088-.154-.172-.308-.247-.466l-.007-.014c0-.009-.007-.019-.012-.028-.092-.2-.176-.394-.248-.595l-.011-.033a6.322,6.322,0,0,1-.184-.62c0-.008,0-.016-.005-.024A5.981,5.981,0,0,1,.1,34.946l0-.013a5.7,5.7,0,0,1-.041-.666L0,8.918A5.281,5.281,0,0,1,1.275,5.44a5.821,5.821,0,0,1,.589-.6c.106-.094.216-.184.329-.272a6.83,6.83,0,0,1,1.528-.88L12.535,0A5.656,5.656,0,0,0,8.813,5.229l.061,25.35A5.787,5.787,0,0,0,8.915,31.245Z" transform="matrix(0.59, -0.81, 0.81, 0.59, 665.5, 82.72)"/>
      </g>
      <path id="Path_171-4" data-name="Path 171" class="cls-2" d="M8.1,38.734c4.432.479,8.017-2.115,8.009-5.8l-.061-25.35C16.04,3.908,12.44.536,8.008.057S-.009,2.173,0,5.853L.061,31.2C.07,34.883,3.67,38.255,8.1,38.734Z" transform="translate(8.352 0)"/>
    </g>
    <g id="Group_107" data-name="Group 107" transform="matrix(-0.588, -0.809, 0.809, -0.588, 432.654, 1600.24)">
      <g class="cls-6" transform="matrix(-0.59, 0.81, -0.81, -0.59, 754.88, -969.95)">
        <path id="Path_170-11" data-name="Path 170" class="cls-3" d="M6.532,7.771v-.01a4.366,4.366,0,0,1,.085-.471l0-.019a4.649,4.649,0,0,1,.135-.454l.008-.024c.053-.147.114-.293.182-.436l.014-.031c.056-.116.117-.229.181-.341l.038-.065q.1-.165.208-.325l.045-.063q.079-.111.165-.219l.051-.065c.071-.088.144-.174.221-.258l.047-.05q.09-.1.184-.19l.072-.07q.1-.093.2-.183l.05-.045q.127-.11.26-.214l.069-.052q.1-.08.213-.156l.081-.056c.1-.069.2-.136.307-.2l.027-.016c.1-.059.2-.115.3-.17l.079-.042q.2-.1.406-.2l.066-.029c.143-.063.288-.122.437-.176l.05-.017c.106-.038.214-.073.322-.106l.1-.029c.124-.036.249-.07.376-.1l.033-.007c.118-.027.237-.051.356-.072L12,2.8c.131-.021.262-.041.4-.055.164-.018.326-.028.486-.035.051,0,.1,0,.152,0,.11,0,.22,0,.328,0l.167.007c.106.006.21.014.313.025.05.005.1.009.151.016q.191.024.377.059l.066.011c.147.029.291.065.433.1.041.011.081.025.121.037.1.031.2.063.3.1s.167.06.247.094L9.076.454Q8.988.417,8.9.383L8.829.36c-.1-.036-.2-.068-.3-.1C8.49.25,8.451.236,8.41.225,8.268.186,8.124.15,7.977.121l-.009,0L7.911.11Q7.725.074,7.533.05c-.05-.006-.1-.011-.15-.016Q7.227.019,7.068.01L6.9,0c-.109,0-.219,0-.329,0-.05,0-.1,0-.151,0C6.262.011,6.1.021,5.936.039c-.133.014-.265.034-.4.055l-.1.017c-.12.021-.24.045-.358.072L5.05.19c-.127.03-.252.064-.376.1l-.1.029q-.163.049-.323.106L4.217.436l-.01,0c-.149.054-.294.113-.437.176L3.7.645c-.138.062-.273.128-.406.2L3.262.86,3.218.885c-.1.055-.2.111-.3.17l-.027.015c-.1.064-.207.131-.308.2l-.035.022L2.5,1.327c-.073.051-.144.1-.214.157l-.068.052q-.133.1-.26.214l-.012.01-.038.035q-.1.09-.2.183l-.072.07q-.094.094-.184.191l-.037.038-.011.012c-.076.084-.15.171-.221.258l-.051.065q-.085.108-.164.219c-.01.015-.022.028-.032.043l-.013.02C.856,3,.787,3.108.722,3.218l-.037.065C.62,3.4.559,3.509.5,3.624L.5,3.634l-.008.02c-.068.143-.129.289-.182.436L.3,4.115a4.632,4.632,0,0,0-.135.454c0,.006,0,.012,0,.018a4.382,4.382,0,0,0-.085.472v.01a4.173,4.173,0,0,0-.03.488L0,24.128a3.869,3.869,0,0,0,.934,2.548,4.265,4.265,0,0,0,.431.439c.078.069.158.135.241.2a5,5,0,0,0,1.12.644l6.457,2.7a4.144,4.144,0,0,1-2.727-3.831L6.5,8.258A4.239,4.239,0,0,1,6.532,7.771Z" transform="matrix(-0.59, -0.81, 0.81, -0.59, 1228.42, 40.59)"/>
      </g>
      <path id="Path_171-5" data-name="Path 171" class="cls-4" d="M5.936.042C9.183-.309,11.81,1.592,11.8,4.288L11.759,22.86c-.007,2.7-2.644,5.166-5.891,5.517S-.006,26.828,0,24.131L.045,5.559C.051,2.863,2.689.393,5.936.042Z" transform="translate(6.119 2.511)"/>
    </g>
    <g id="Group_108" data-name="Group 108" transform="matrix(0.588, -0.809, 0.809, 0.588, -542.879, 1743.06)">
      <g class="cls-5" transform="matrix(0.59, 0.81, -0.81, 0.59, -0.26, -312.39)">
        <path id="Path_170-12" data-name="Path 170" class="cls-1" d="M6.532,22.891v.01a4.366,4.366,0,0,0,.085.471l0,.019a4.649,4.649,0,0,0,.135.454l.008.024c.053.147.114.293.182.436l.014.031c.056.116.117.229.181.341l.038.065q.1.165.208.325l.045.063q.079.111.165.219l.051.065c.071.088.144.174.221.258l.047.05q.09.1.184.19l.072.07q.1.093.2.183l.05.045q.127.11.26.214l.069.052q.1.08.213.156l.081.056c.1.069.2.136.307.2l.027.016c.1.059.2.115.3.17l.079.042q.2.1.406.2l.066.029c.143.063.288.122.437.176l.05.017c.106.038.214.073.322.106l.1.029c.124.036.249.07.376.1l.033.007c.118.027.237.051.356.072l.1.017c.131.021.262.041.4.055.164.018.326.028.486.035.051,0,.1,0,.152,0,.11,0,.22,0,.328,0l.167-.007c.106-.006.21-.014.313-.025.05-.005.1-.009.151-.016q.191-.024.377-.059l.066-.011c.147-.029.291-.065.433-.1.041-.011.081-.025.121-.037.1-.031.2-.063.3-.1s.167-.06.247-.094l-6.457,2.7q-.088.037-.179.071l-.068.022c-.1.036-.2.068-.3.1-.041.012-.08.025-.121.037-.141.039-.286.075-.433.1l-.009,0-.057.009q-.186.035-.378.059c-.05.006-.1.011-.15.016q-.155.016-.314.025L6.9,30.66c-.109,0-.219,0-.329,0-.05,0-.1,0-.151,0-.161-.006-.322-.017-.486-.035-.133-.014-.265-.034-.4-.055l-.1-.017c-.12-.021-.24-.045-.358-.072l-.032-.007c-.127-.03-.252-.064-.376-.1l-.1-.029q-.163-.049-.323-.106l-.039-.013-.01,0c-.149-.054-.294-.113-.437-.176L3.7,30.017c-.138-.062-.273-.128-.406-.2L3.262,29.8l-.044-.025c-.1-.055-.2-.111-.3-.17l-.027-.015c-.1-.064-.207-.131-.308-.2l-.035-.022-.046-.034c-.073-.051-.144-.1-.214-.157l-.068-.052q-.133-.1-.26-.214l-.012-.01-.038-.035q-.1-.09-.2-.184l-.072-.07q-.094-.094-.184-.191l-.037-.038-.011-.012c-.076-.084-.15-.171-.221-.258l-.051-.065q-.085-.108-.164-.219c-.01-.015-.022-.028-.032-.043l-.013-.02c-.074-.106-.143-.215-.208-.325L.684,27.38C.62,27.267.559,27.154.5,27.038L.5,27.028l-.008-.02c-.068-.143-.129-.289-.182-.436L.3,26.547a4.632,4.632,0,0,1-.135-.454c0-.006,0-.012,0-.018A4.382,4.382,0,0,1,.076,25.6v-.01a4.173,4.173,0,0,1-.03-.488L0,6.534A3.869,3.869,0,0,1,.934,3.985a4.265,4.265,0,0,1,.431-.439c.078-.069.158-.135.241-.2A5,5,0,0,1,2.726,2.7L9.183,0A4.144,4.144,0,0,0,6.456,3.831L6.5,22.4A4.239,4.239,0,0,0,6.532,22.891Z" transform="matrix(0.59, -0.81, 0.81, 0.59, 253.1, 183.57)"/>
      </g>
      <path id="Path_171-6" data-name="Path 171" class="cls-2" d="M5.936,28.378c3.247.351,5.874-1.55,5.867-4.246L11.758,5.56C11.752,2.863,9.114.393,5.867.042S-.007,1.592,0,4.288L.045,22.861C.051,25.557,2.689,28.027,5.936,28.378Z" transform="translate(6.119 0)"/>
    </g>
  </g>
</svg>
