<svg xmlns="http://www.w3.org/2000/svg" width="31.85" height="31.85" viewBox="0 0 31.85 31.85">
  <defs>
    <style>
      .cls-1 {
        fill: #fff;
      }
    </style>
  </defs>
  <path id="dribbble-square" class="cls-1" d="M6.413,45.949a9.747,9.747,0,0,1,5.382-6.8,62.714,62.714,0,0,1,3.6,5.616,36.217,36.217,0,0,1-8.986,1.187Zm15.953-5.275A9.681,9.681,0,0,0,13.65,38.5a52.294,52.294,0,0,1,3.626,5.688A11.021,11.021,0,0,0,22.366,40.673ZM9.96,55.6a9.7,9.7,0,0,0,9.761,1.28,40.111,40.111,0,0,0-2.076-7.365A13.661,13.661,0,0,0,9.96,55.6Zm7.024-7.692c-.242-.555-.512-1.1-.789-1.649a35.576,35.576,0,0,1-9.982,1.379c0,.1-.007.2-.007.3a9.7,9.7,0,0,0,2.5,6.5,15.07,15.07,0,0,1,8.282-6.526Zm2.481,1.159a41.545,41.545,0,0,1,1.884,6.925,9.726,9.726,0,0,0,4.166-6.512A14.176,14.176,0,0,0,19.465,49.07Zm-1.443-3.441c.341.7.59,1.265.853,1.905a22.644,22.644,0,0,1,6.768.313,9.623,9.623,0,0,0-2.2-6.05A13.008,13.008,0,0,1,18.022,45.629ZM31.85,35.412V60.438a3.413,3.413,0,0,1-3.413,3.412H3.413A3.413,3.413,0,0,1,0,60.438V35.412A3.413,3.413,0,0,1,3.413,32H28.438A3.413,3.413,0,0,1,31.85,35.412ZM27.3,47.925A11.375,11.375,0,1,0,15.925,59.3,11.39,11.39,0,0,0,27.3,47.925Z" transform="translate(0 -32)"/>
</svg>
