<svg xmlns="http://www.w3.org/2000/svg" width="16.36" height="13.088" viewBox="0 0 16.36 13.088">
  <defs>
    <style>
      .cls-1 {
        fill: #231833;
      }
    </style>
  </defs>
  <path id="email" class="cls-1" d="M8.18,478.711c-1.309,0-2.618-1.145-3.272-1.636-3.272-2.29-4.254-3.108-4.908-3.6v6.871a1.636,1.636,0,0,0,1.636,1.636H14.724a1.636,1.636,0,0,0,1.636-1.636v-6.871c-.654.491-1.636,1.309-4.908,3.6C10.8,477.565,9.489,478.711,8.18,478.711Zm6.544-9.816H1.636A1.636,1.636,0,0,0,0,470.531v.818c1.309.982,1.145.982,5.89,4.417.491.327,1.472,1.309,2.29,1.309s1.8-.982,2.29-1.145c4.744-3.436,4.581-3.436,5.89-4.417v-.982a1.636,1.636,0,0,0-1.636-1.636Z" transform="translate(0 -468.895)"/>
</svg>
