<svg xmlns="http://www.w3.org/2000/svg" width="76" height="76" viewBox="0 0 76 76">
  <defs>
    <style>
      .cls-1 {
        fill: #3a3a3a;
      }

      .cls-2 {
        fill: #fff;
      }
    </style>
  </defs>
  <g id="Group_121" data-name="Group 121" transform="translate(-122 -109)">
    <circle id="Ellipse_9" data-name="Ellipse 9" class="cls-1" cx="38" cy="38" r="38" transform="translate(122 109)"/>
    <g id="Group_110" data-name="Group 110" transform="translate(33.271 -86.322)">
      <g id="Group_101" data-name="Group 101" transform="translate(109.15 215.11)">
        <g id="Brand">
          <path id="Path_315" data-name="Path 315" class="cls-2" d="M143.15,229.22v-6.277a1.881,1.881,0,0,1,1.883-1.883h5.216A17.381,17.381,0,0,1,153.193,224v5.222a1.889,1.889,0,0,1-1.883,1.883h-6.277A1.885,1.885,0,0,1,143.15,229.22Z" transform="translate(-121.809 -217.325)"/>
          <path id="Path_316" data-name="Path 316" class="cls-2" d="M144.288,234.418a17.573,17.573,0,0,1-35.138-.508v-1.255a17.563,17.563,0,0,1,16.6-17.544,6.414,6.414,0,0,0-.276,1.852v11.3c0,.213.013.421.031.628h-1.914a1.881,1.881,0,0,0-1.883,1.883v5.021a1.885,1.885,0,0,0,1.883,1.883h5.022a1.889,1.889,0,0,0,1.883-1.883v-1.381a6.356,6.356,0,0,0,1.255.126h11.3A6.73,6.73,0,0,0,144.288,234.418Z" transform="translate(-109.15 -215.11)"/>
          <path id="Path_317" data-name="Path 317" class="cls-2" d="M153.193,222.943v6.277a1.889,1.889,0,0,1-1.883,1.883h-6.277a1.885,1.885,0,0,1-1.883-1.883v-6.277a1.881,1.881,0,0,1,1.883-1.883h6.277A1.885,1.885,0,0,1,153.193,222.943Z" transform="translate(-121.809 -217.325)"/>
          <path id="Path_318" data-name="Path 318" class="cls-2" d="M153.193,222.943v6.277a1.889,1.889,0,0,1-1.883,1.883h-6.277a1.885,1.885,0,0,1-1.883-1.883v-6.277a1.881,1.881,0,0,1,1.883-1.883h6.277A1.885,1.885,0,0,1,153.193,222.943Z" transform="translate(-121.809 -217.325)"/>
        </g>
      </g>
    </g>
  </g>
</svg>
