<svg xmlns="http://www.w3.org/2000/svg" width="64.744" height="64.637" viewBox="0 0 64.744 64.637">
  <defs>
    <style>
      .cls-1 {
        fill: #4f5d67;
      }

      .cls-1, .cls-2 {
        opacity: 0.5;
      }

      .cls-2 {
        fill: #0a1014;
      }

      .cls-3 {
        fill: #2c384c;
      }

      .cls-4 {
        fill: #00fcff;
      }
    </style>
  </defs>
  <g id="Home" transform="translate(9 9)">
    <g id="Group_2601" data-name="Group 2601" transform="translate(0 0)">
      <g id="location_small" data-name="location small" transform="translate(0 0)">
        <path id="ligh" class="cls-1" d="M7.506,0H35.651a7.346,7.346,0,0,1,7.506,7.175V34.081a7.346,7.346,0,0,1-7.506,7.175H7.506A7.346,7.346,0,0,1,0,34.081V7.175A7.346,7.346,0,0,1,7.506,0Z"/>
        <path id="dark" class="cls-2" d="M7.506,0H35.651a7.346,7.346,0,0,1,7.506,7.175V34.081a7.346,7.346,0,0,1-7.506,7.175H7.506A7.346,7.346,0,0,1,0,34.081V7.175A7.346,7.346,0,0,1,7.506,0Z" transform="translate(3.587 5.381)"/>
        <path id="main" class="cls-3" d="M7.506,0H35.651a7.346,7.346,0,0,1,7.506,7.175V34.081a7.346,7.346,0,0,1-7.506,7.175H7.506A7.346,7.346,0,0,1,0,34.081V7.175A7.346,7.346,0,0,1,7.506,0Z" transform="translate(0.897 2.691)"/>
      </g>
    </g>
    <path id="Path" class="cls-4" d="M18.226,8.147h0L10.584.505a1.724,1.724,0,0,0-2.439,0L.508,8.142.5,8.15a1.724,1.724,0,0,0,1.148,2.938l.053,0h.3v5.623a2.02,2.02,0,0,0,2.018,2.018H7.014a.549.549,0,0,0,.549-.549V13.774a.922.922,0,0,1,.921-.921h1.763a.922.922,0,0,1,.921.921v4.408a.549.549,0,0,0,.549.549h2.989a2.02,2.02,0,0,0,2.018-2.018V11.09h.282a1.725,1.725,0,0,0,1.22-2.943Z" transform="translate(13.272 11.71)"/>
  </g>
</svg>
