<svg id="Layer_1" data-name="Layer 1" xmlns="http://www.w3.org/2000/svg" xmlns:xlink="http://www.w3.org/1999/xlink" viewBox="0 0 1292.85 1462.58"><defs><style>.cls-1{fill:url(#linear-gradient);}.cls-2{fill:url(#linear-gradient-2);}.cls-3{fill:url(#linear-gradient-3);}</style><linearGradient id="linear-gradient" x1="534.71" y1="829.12" x2="994.61" y2="829.12" gradientUnits="userSpaceOnUse"><stop offset="0" stop-color="#afddff"/><stop offset="0.03" stop-color="#acdaff"/><stop offset="0.69" stop-color="#6f9cff"/><stop offset="1" stop-color="#5885ff"/></linearGradient><linearGradient id="linear-gradient-2" x1="489.51" y1="512.21" x2="1145.12" y2="29.49" gradientUnits="userSpaceOnUse"><stop offset="0" stop-color="#5df5ff"/><stop offset="0.55" stop-color="#55cfff"/><stop offset="1" stop-color="#4eaeff"/></linearGradient><linearGradient id="linear-gradient-3" x1="455.59" y1="826.31" x2="455.59" y2="66.85" gradientUnits="userSpaceOnUse"><stop offset="0" stop-color="#58a0ff"/><stop offset="0.45" stop-color="#5888ff"/><stop offset="1" stop-color="#5966ff"/></linearGradient></defs><title>homeright</title><path id="Rectangle_18" data-name="Rectangle 18" class="cls-1" d="M634.71,398.53h343.9a16,16,0,0,1,16,16v829.19a16,16,0,0,1-16,16H734.71c-110.46,0-200-89.55-200-200V498.53A100,100,0,0,1,634.71,398.53Z"/><path class="cls-2" d="M994.45,159.48V397.83A228.61,228.61,0,0,1,813.94,485.9H812a229,229,0,0,1-229-229v-.19a228.1,228.1,0,0,1,21.61-97.23Z"/><path class="cls-3" d="M680.67,266.44V834.07a124,124,0,0,1-124,124H354.52a124,124,0,0,1-124-124V266.44a124,124,0,0,1,61.23-107h327.7A124,124,0,0,1,680.67,266.44Z"/></svg>