<svg xmlns="http://www.w3.org/2000/svg" width="31.85" height="31.85" viewBox="0 0 31.85 31.85">
  <defs>
    <style>
      .cls-1 {
        fill: #fff;
      }
    </style>
  </defs>
  <path id="linkedin" class="cls-1" d="M29.575,32H2.268A2.285,2.285,0,0,0,0,34.3V61.554a2.285,2.285,0,0,0,2.268,2.3H29.575a2.291,2.291,0,0,0,2.275-2.3V34.3A2.291,2.291,0,0,0,29.575,32ZM9.626,59.3H4.905V44.1H9.633V59.3ZM7.266,42.024A2.737,2.737,0,1,1,10,39.287,2.738,2.738,0,0,1,7.266,42.024ZM27.321,59.3H22.6V51.906c0-1.763-.036-4.031-2.453-4.031-2.46,0-2.837,1.92-2.837,3.9V59.3H12.591V44.1h4.529v2.076h.064a4.972,4.972,0,0,1,4.472-2.453c4.778,0,5.666,3.149,5.666,7.244Z" transform="translate(0 -32)"/>
</svg>
