<svg xmlns="http://www.w3.org/2000/svg" width="16.481" height="12.371" viewBox="0 0 16.481 12.371">
  <defs>
    <style>
      .cls-1 {
        fill: #fff;
      }
    </style>
  </defs>
  <g id="next" transform="translate(-227.402 -1811.97)">
    <path id="Path_5" data-name="Path 5" class="cls-1" d="M16.481,6.184a1.04,1.04,0,0,0-.251-.638L11.281.288A1.063,1.063,0,0,0,9.928.211a.967.967,0,0,0,.01,1.353l3.479,3.692H.928a.928.928,0,0,0,0,1.856H13.417L9.938,10.8a1.022,1.022,0,0,0-.01,1.353,1.049,1.049,0,0,0,1.353-.077L16.23,6.822a.893.893,0,0,0,.251-.638Z" transform="translate(243.883 1824.341) rotate(180)"/>
  </g>
</svg>
