<svg xmlns="http://www.w3.org/2000/svg" width="64.744" height="64.637" viewBox="0 0 64.744 64.637">
  <defs>
    <style>
      .cls-1 {
        fill: #4f5d67;
      }

      .cls-1, .cls-2 {
        opacity: 0.5;
      }

      .cls-2 {
        fill: #0a1014;
      }

      .cls-3 {
        fill: #2c384c;
      }

      .cls-4 {
        fill: #fff;
      }
    </style>
  </defs>
  <g id="Profile" transform="translate(9 9)">
    <g id="Group_2607" data-name="Group 2607" transform="translate(0 0)">
      <g id="location_small" data-name="location small" transform="translate(0 0)">
        <path id="ligh" class="cls-1" d="M7.506,0H35.651a7.346,7.346,0,0,1,7.506,7.175V34.081a7.346,7.346,0,0,1-7.506,7.175H7.506A7.346,7.346,0,0,1,0,34.081V7.175A7.346,7.346,0,0,1,7.506,0Z"/>
        <path id="dark" class="cls-2" d="M7.506,0H35.651a7.346,7.346,0,0,1,7.506,7.175V34.081a7.346,7.346,0,0,1-7.506,7.175H7.506A7.346,7.346,0,0,1,0,34.081V7.175A7.346,7.346,0,0,1,7.506,0Z" transform="translate(3.587 5.381)"/>
        <path id="main" class="cls-3" d="M7.506,0H35.651a7.346,7.346,0,0,1,7.506,7.175V34.081a7.346,7.346,0,0,1-7.506,7.175H7.506A7.346,7.346,0,0,1,0,34.081V7.175A7.346,7.346,0,0,1,7.506,0Z" transform="translate(0.897 2.691)"/>
      </g>
    </g>
    <path id="gear" class="cls-4" d="M15.788,6.243l-1.243-.27a6.763,6.763,0,0,0-.4-.964l.688-1.07a.483.483,0,0,0-.065-.6L12.833,1.4a.483.483,0,0,0-.6-.065l-1.07.688a6.763,6.763,0,0,0-.964-.4L9.925.38A.483.483,0,0,0,9.453,0H6.715a.483.483,0,0,0-.472.38l-.27,1.243a6.763,6.763,0,0,0-.964.4l-1.07-.688a.483.483,0,0,0-.6.065L1.4,3.336a.483.483,0,0,0-.065.6l.688,1.07a6.763,6.763,0,0,0-.4.964L.38,6.243A.483.483,0,0,0,0,6.715V9.453a.483.483,0,0,0,.38.472l1.243.27a6.763,6.763,0,0,0,.4.964l-.688,1.07a.483.483,0,0,0,.065.6l1.936,1.936a.483.483,0,0,0,.6.065l1.07-.688a6.763,6.763,0,0,0,.964.4l.27,1.243a.483.483,0,0,0,.472.38H9.453a.483.483,0,0,0,.472-.38l.27-1.243a6.763,6.763,0,0,0,.964-.4l1.07.688a.483.483,0,0,0,.6-.065l1.936-1.936a.483.483,0,0,0,.065-.6l-.688-1.07a6.763,6.763,0,0,0,.4-.964l1.243-.27a.483.483,0,0,0,.38-.472V6.715A.483.483,0,0,0,15.788,6.243ZM10.983,8.084a2.9,2.9,0,1,1-2.9-2.9A2.9,2.9,0,0,1,10.983,8.084Zm0,0" transform="translate(15.004 14.833)"/>
  </g>
</svg>
