<svg xmlns="http://www.w3.org/2000/svg" width="64.744" height="64.637" viewBox="0 0 64.744 64.637">
  <defs>
    <style>
      .cls-1 {
        fill: #4f5d67;
      }

      .cls-1, .cls-2 {
        opacity: 0.5;
      }

      .cls-2 {
        fill: #0a1014;
      }

      .cls-3 {
        fill: #2c384c;
      }

      .cls-4 {
        fill: #fff;
      }
    </style>
  </defs>
  <g id="Search_" data-name="Search " transform="translate(9 9)">
    <g id="Group_2603" data-name="Group 2603" transform="translate(0 0)">
      <g id="location_small" data-name="location small" transform="translate(0 0)">
        <path id="ligh" class="cls-1" d="M7.506,0H35.651a7.346,7.346,0,0,1,7.506,7.175V34.081a7.346,7.346,0,0,1-7.506,7.175H7.506A7.346,7.346,0,0,1,0,34.081V7.175A7.346,7.346,0,0,1,7.506,0Z"/>
        <path id="dark" class="cls-2" d="M7.506,0H35.651a7.346,7.346,0,0,1,7.506,7.175V34.081a7.346,7.346,0,0,1-7.506,7.175H7.506A7.346,7.346,0,0,1,0,34.081V7.175A7.346,7.346,0,0,1,7.506,0Z" transform="translate(3.587 5.381)"/>
        <path id="main" class="cls-3" d="M7.506,0H35.651a7.346,7.346,0,0,1,7.506,7.175V34.081a7.346,7.346,0,0,1-7.506,7.175H7.506A7.346,7.346,0,0,1,0,34.081V7.175A7.346,7.346,0,0,1,7.506,0Z" transform="translate(0.897 2.691)"/>
      </g>
    </g>
    <path id="Shape" class="cls-4" d="M16.4,18.705a2.313,2.313,0,0,1-1.636-.7l-3.084-3.078a8.54,8.54,0,0,1-3.739.933,7.93,7.93,0,1,1,5.62-13.539A7.873,7.873,0,0,1,15.89,7.93a8.5,8.5,0,0,1-.934,3.731L18.04,14.74a2.431,2.431,0,0,1,0,3.265A2.314,2.314,0,0,1,16.4,18.705ZM7.945,4.485A3.445,3.445,0,1,0,11.4,7.93,3.452,3.452,0,0,0,7.945,4.485Z" transform="translate(14.053 14.053)"/>
  </g>
</svg>
