<svg xmlns="http://www.w3.org/2000/svg" width="31.945" height="31.945" viewBox="0 0 31.945 31.945">
  <defs>
    <style>
      .cls-1 {
        fill: #fff;
      }
    </style>
  </defs>
  <path id="slack" class="cls-1" d="M6.711,52.187a3.356,3.356,0,1,1-3.356-3.356H6.711Zm1.691,0a3.356,3.356,0,0,1,6.711,0v8.4a3.356,3.356,0,0,1-6.711,0v-8.4Zm3.356-13.475a3.356,3.356,0,1,1,3.356-3.356v3.356H11.758Zm0,1.691a3.356,3.356,0,1,1,0,6.711h-8.4a3.356,3.356,0,0,1,0-6.711h8.4Zm13.475,3.356a3.356,3.356,0,1,1,3.356,3.356H25.234Zm-1.691,0a3.356,3.356,0,0,1-6.711,0v-8.4a3.356,3.356,0,1,1,6.711,0ZM20.187,57.234a3.356,3.356,0,1,1-3.356,3.356V57.234Zm0-1.691a3.356,3.356,0,1,1,0-6.711h8.4a3.356,3.356,0,1,1,0,6.711Z" transform="translate(0 -32)"/>
</svg>
