<svg xmlns="http://www.w3.org/2000/svg" width="31.85" height="31.85" viewBox="0 0 31.85 31.85">
  <defs>
    <style>
      .cls-1 {
        fill: #fff;
      }
    </style>
  </defs>
  <path id="behance-square" class="cls-1" d="M13.259,50.555c0,1.372-1,1.806-2.218,1.806H7.835V48.6H11.1c1.322.007,2.154.555,2.154,1.955ZM12.712,44.7c0-1.258-.974-1.557-2.055-1.557H7.842v3.185h3.036c1.074,0,1.834-.469,1.834-1.628Zm9.406,1.649a2.119,2.119,0,0,0-2.254,2.111h4.422A2.026,2.026,0,0,0,22.117,46.354ZM31.85,35.412V60.438a3.413,3.413,0,0,1-3.413,3.412H3.413A3.413,3.413,0,0,1,0,60.438V35.412A3.413,3.413,0,0,1,3.413,32H28.438A3.413,3.413,0,0,1,31.85,35.412ZM19.316,42.877h5.531V41.534H19.316Zm-3.057,7.842a3.535,3.535,0,0,0-2.488-3.668,2.654,2.654,0,0,0,1.863-2.63c0-2.716-2.026-3.377-4.365-3.377H4.834v13.65h6.619C13.934,54.679,16.259,53.492,16.259,50.719Zm10.756-1.052c0-2.922-1.713-5.36-4.806-5.36a4.962,4.962,0,0,0-5.055,5.233,4.817,4.817,0,0,0,5.055,5.19A4.408,4.408,0,0,0,26.838,51.4h-2.4A2.249,2.249,0,0,1,22.3,52.688a2.231,2.231,0,0,1-2.424-2.51h7.124c.007-.164.021-.341.021-.512Z" transform="translate(0 -32)"/>
</svg>
