<svg xmlns="http://www.w3.org/2000/svg" width="64.854" height="64.637" viewBox="0 0 64.854 64.637">
  <defs>
    <style>
      .cls-1 {
        fill: #4f5d67;
      }

      .cls-1, .cls-2 {
        opacity: 0.5;
      }

      .cls-2 {
        fill: #0a1014;
      }

      .cls-3 {
        fill: #2c384c;
      }

      .cls-4 {
        fill: #38dbdd;
      }
    </style>
  </defs>
  <g id="downloadMusic" transform="translate(9 9)">
    <g id="location_small" data-name="location small" transform="translate(0 0)">
      <path id="ligh" class="cls-1" d="M7.548,0H35.853A7.385,7.385,0,0,1,43.4,7.21V34.248a7.385,7.385,0,0,1-7.548,7.21H7.548A7.385,7.385,0,0,1,0,34.248V7.21A7.385,7.385,0,0,1,7.548,0Z"/>
      <path id="dark" class="cls-2" d="M7.548,0H35.853A7.385,7.385,0,0,1,43.4,7.21V34.248a7.385,7.385,0,0,1-7.548,7.21H7.548A7.385,7.385,0,0,1,0,34.248V7.21A7.385,7.385,0,0,1,7.548,0Z" transform="translate(3.453 5.179)"/>
      <path id="main" class="cls-3" d="M7.548,0H35.853A7.385,7.385,0,0,1,43.4,7.21V34.248a7.385,7.385,0,0,1-7.548,7.21H7.548A7.385,7.385,0,0,1,0,34.248V7.21A7.385,7.385,0,0,1,7.548,0Z" transform="translate(0.863 2.59)"/>
      <path id="download" class="cls-4" d="M6.526,0H8.943a.723.723,0,0,1,.725.725V5.8h2.65a.6.6,0,0,1,.426,1.03l-4.6,4.6a.585.585,0,0,1-.825,0l-4.6-4.6A.6.6,0,0,1,3.148,5.8H5.8V.725A.723.723,0,0,1,6.526,0ZM15.47,11.361v3.384a.723.723,0,0,1-.725.725H.725A.723.723,0,0,1,0,14.745V11.361a.723.723,0,0,1,.725-.725H5.158l1.481,1.481a1.548,1.548,0,0,0,2.194,0l1.481-1.481h4.432A.723.723,0,0,1,15.47,11.361Z" transform="translate(14.727 16.012)"/>
    </g>
  </g>
</svg>
