<svg xmlns="http://www.w3.org/2000/svg" width="15.47" height="15.47" viewBox="0 0 15.47 15.47">
  <defs>
    <style>
      .cls-1 {
        fill: #fff;
      }
    </style>
  </defs>
  <path id="download" class="cls-1" d="M6.526,0H8.943a.723.723,0,0,1,.725.725V5.8h2.65a.6.6,0,0,1,.426,1.03l-4.6,4.6a.585.585,0,0,1-.825,0l-4.6-4.6A.6.6,0,0,1,3.148,5.8H5.8V.725A.723.723,0,0,1,6.526,0ZM15.47,11.361v3.384a.723.723,0,0,1-.725.725H.725A.723.723,0,0,1,0,14.745V11.361a.723.723,0,0,1,.725-.725H5.158l1.481,1.481a1.548,1.548,0,0,0,2.194,0l1.481-1.481h4.432A.723.723,0,0,1,15.47,11.361Z"/>
</svg>
