<svg xmlns="http://www.w3.org/2000/svg" xmlns:xlink="http://www.w3.org/1999/xlink" width="168.626" height="57.241" viewBox="0 0 168.626 57.241">
  <defs>
    <style>
      .cls-1 {
        fill: #4f5d67;
      }

      .cls-1, .cls-2 {
        opacity: 0.5;
      }

      .cls-2 {
        fill: #0a1014;
      }

      .cls-3 {
        fill: #2c384c;
      }

      .cls-4 {
        fill: #acb8cc;
        font-size: 13px;
        font-family: Metropolis-SemiBold, Metropolis;
        font-weight: 600;
      }

      .cls-5 {
        filter: url(#_2C384C);
      }
    </style>
    <filter id="_2C384C" x="45.512" y="16.075" width="77" height="31" filterUnits="userSpaceOnUse">
      <feOffset dy="3" input="SourceAlpha"/>
      <feGaussianBlur stdDeviation="3" result="blur"/>
      <feFlood flood-color="#19202c" flood-opacity="0.878"/>
      <feComposite operator="in" in2="blur"/>
      <feComposite in="SourceGraphic"/>
    </filter>
  </defs>
  <g id="first" transform="translate(51.246 51.246) rotate(180)">
    <g id="location_small" data-name="location small" transform="translate(0 0.005)">
      <path id="ligh" class="cls-1" d="M-102.761,0H34.387a7.239,7.239,0,0,1,7.239,7.238V34.383a7.239,7.239,0,0,1-7.239,7.238H-102.761A7.239,7.239,0,0,1-110,34.383V7.238A7.239,7.239,0,0,1-102.761,0Z" transform="translate(0 0)"/>
      <path id="dark" class="cls-2" d="M-107.761,0H34.387a7.239,7.239,0,0,1,7.239,7.238V34.383a7.239,7.239,0,0,1-7.239,7.238H-107.761A7.239,7.239,0,0,1-115,34.383V7.238A7.239,7.239,0,0,1-107.761,0Z" transform="translate(3.62 3.62)"/>
      <path id="main" class="cls-3" d="M-102.761,0H34.387a7.239,7.239,0,0,1,7.239,7.238V34.383a7.239,7.239,0,0,1-7.239,7.238H-102.761A7.239,7.239,0,0,1-110,34.383V7.238A7.239,7.239,0,0,1-102.761,0Z" transform="translate(1.81 1.81)"/>
      <g class="cls-5" transform="matrix(-1, 0, 0, -1, 51.25, 51.24)">
        <text id="_2C384C-2" data-name="#2C384C" class="cls-4" transform="translate(54.51 32.07)"><tspan x="0" y="0">#2C384C</tspan></text>
      </g>
    </g>
  </g>
</svg>
