<svg xmlns="http://www.w3.org/2000/svg" width="31.857" height="31.85" viewBox="0 0 31.857 31.85">
  <defs>
    <style>
      .cls-1 {
        fill: #fff;
      }
    </style>
  </defs>
  <path id="instagram" class="cls-1" d="M15.857,39.584a8.166,8.166,0,1,0,8.166,8.166A8.153,8.153,0,0,0,15.857,39.584Zm0,13.475a5.309,5.309,0,1,1,5.309-5.309,5.319,5.319,0,0,1-5.309,5.309Zm10.4-13.809a1.9,1.9,0,1,1-1.9-1.9A1.9,1.9,0,0,1,26.262,39.25Zm5.408,1.933A9.426,9.426,0,0,0,29.1,34.51a9.488,9.488,0,0,0-6.673-2.573c-2.63-.149-10.511-.149-13.141,0A9.474,9.474,0,0,0,2.61,34.5,9.457,9.457,0,0,0,.037,41.176c-.149,2.63-.149,10.511,0,13.141A9.426,9.426,0,0,0,2.61,60.99a9.5,9.5,0,0,0,6.673,2.573c2.63.149,10.511.149,13.141,0A9.426,9.426,0,0,0,29.1,60.99a9.488,9.488,0,0,0,2.573-6.673C31.819,51.687,31.819,43.813,31.67,41.183Zm-3.4,15.955a5.375,5.375,0,0,1-3.028,3.028c-2.1.832-7.071.64-9.388.64s-7.3.185-9.388-.64a5.375,5.375,0,0,1-3.028-3.028c-.832-2.1-.64-7.071-.64-9.388s-.185-7.3.64-9.388a5.375,5.375,0,0,1,3.028-3.028c2.1-.832,7.071-.64,9.388-.64s7.3-.185,9.388.64a5.375,5.375,0,0,1,3.028,3.028c.832,2.1.64,7.071.64,9.388S29.1,55.049,28.273,57.138Z" transform="translate(0.075 -31.825)"/>
</svg>
