<svg xmlns="http://www.w3.org/2000/svg" width="57.246" height="57.241" viewBox="0 0 57.246 57.241">
  <defs>
    <style>
      .cls-1 {
        fill: #4f5d67;
      }

      .cls-1, .cls-2 {
        opacity: 0.5;
      }

      .cls-2 {
        fill: #0a1014;
      }

      .cls-3 {
        fill: #2c384c;
      }

      .cls-4 {
        fill: #38d7d9;
      }
    </style>
  </defs>
  <g id="library" transform="translate(51.246 51.246) rotate(180)">
    <g id="location_small" data-name="location small" transform="translate(0 0.005)">
      <path id="ligh" class="cls-1" d="M7.239,0H34.387a7.239,7.239,0,0,1,7.239,7.238V34.383a7.239,7.239,0,0,1-7.239,7.238H7.239A7.239,7.239,0,0,1,0,34.383V7.238A7.239,7.239,0,0,1,7.239,0Z" transform="translate(0 0)"/>
      <path id="dark" class="cls-2" d="M7.239,0H34.387a7.239,7.239,0,0,1,7.239,7.238V34.383a7.239,7.239,0,0,1-7.239,7.238H7.239A7.239,7.239,0,0,1,0,34.383V7.238A7.239,7.239,0,0,1,7.239,0Z" transform="translate(3.62 3.62)"/>
      <path id="main" class="cls-3" d="M7.239,0H34.387a7.239,7.239,0,0,1,7.239,7.238V34.383a7.239,7.239,0,0,1-7.239,7.238H7.239A7.239,7.239,0,0,1,0,34.383V7.238A7.239,7.239,0,0,1,7.239,0Z" transform="translate(1.81 1.81)"/>
      <g id="Group_2672" data-name="Group 2672">
        <path id="Path_68453" data-name="Path 68453" class="cls-4" d="M18.781.022,1.265,0a1.265,1.265,0,0,0,0,2.53l17.516.022a1.265,1.265,0,0,0,0-2.53Z" transform="translate(32.174 24.809) rotate(-180)"/>
        <path id="Path_68515" data-name="Path 68515" class="cls-4" d="M1.874.3A.683.683,0,0,1,3.01.3L4.769,2.942A.683.683,0,0,1,4.2,4H.684A.683.683,0,0,1,.116,2.942Z" transform="translate(27.693 32.167) rotate(-90)"/>
        <path id="Path_68453-2" data-name="Path 68453" class="cls-4" d="M12.479,0H1.265a1.265,1.265,0,0,0,0,2.53H12.479a1.265,1.265,0,0,0,0-2.53Z" transform="translate(25.872 31.167) rotate(-180)"/>
        <path id="Path_68453-3" data-name="Path 68453" class="cls-4" d="M18.7.005,1.265,0a1.265,1.265,0,0,0,0,2.53L18.7,2.536a1.265,1.265,0,0,0,0-2.53Z" transform="translate(32.09 18.056) rotate(-180)"/>
      </g>
    </g>
  </g>
</svg>
