<svg xmlns="http://www.w3.org/2000/svg" width="57.246" height="57.246" viewBox="0 0 57.246 57.246">
  <defs>
    <style>
      .cls-1 {
        fill: #4f5d67;
      }

      .cls-1, .cls-2 {
        opacity: 0.5;
      }

      .cls-2 {
        fill: #0a1014;
      }

      .cls-3 {
        fill: #2c384c;
      }

      .cls-4 {
        fill: none;
        stroke: #f5f5f5;
      }
    </style>
  </defs>
  <g id="love" transform="translate(6 6)">
    <g id="location_small" data-name="location small">
      <path id="ligh" class="cls-1" d="M7.239,0H34.387a7.239,7.239,0,0,1,7.239,7.239V34.387a7.239,7.239,0,0,1-7.239,7.239H7.239A7.239,7.239,0,0,1,0,34.387V7.239A7.239,7.239,0,0,1,7.239,0Z" transform="translate(0 0)"/>
      <path id="dark" class="cls-2" d="M7.239,0H34.387a7.239,7.239,0,0,1,7.239,7.239V34.387a7.239,7.239,0,0,1-7.239,7.239H7.239A7.239,7.239,0,0,1,0,34.387V7.239A7.239,7.239,0,0,1,7.239,0Z" transform="translate(3.62 3.62)"/>
      <path id="main" class="cls-3" d="M7.239,0H34.387a7.239,7.239,0,0,1,7.239,7.239V34.387a7.239,7.239,0,0,1-7.239,7.239H7.239A7.239,7.239,0,0,1,0,34.387V7.239A7.239,7.239,0,0,1,7.239,0Z" transform="translate(1.81 1.81)"/>
      <g id="heart" transform="translate(17.077 18.075)">
        <path id="Path_8609" data-name="Path 8609" class="cls-4" d="M8.35,35.525a3.135,3.135,0,0,1,3.12,3.12c0,3.15-5.735,6.27-5.735,6.27S0,41.749,0,38.645a3.12,3.12,0,0,1,3.12-3.12h0a3.089,3.089,0,0,1,2.615,1.407A3.12,3.12,0,0,1,8.35,35.525Z" transform="translate(0 -35.525)"/>
      </g>
    </g>
  </g>
</svg>
