<svg xmlns="http://www.w3.org/2000/svg" xmlns:xlink="http://www.w3.org/1999/xlink" width="71.466" height="71.465" viewBox="0 0 71.466 71.465">
  <defs>
    <style>
      .cls-1 {
        fill: #243441;
      }

      .cls-10, .cls-2 {
        fill: #4f5d67;
      }

      .cls-2, .cls-3, .cls-7 {
        opacity: 0.5;
      }

      .cls-3 {
        fill: #0a1014;
      }

      .cls-4 {
        fill: #38dbdd;
      }

      .cls-5 {
        fill: #fff;
      }

      .cls-6 {
        clip-path: url(#clip-path);
      }

      .cls-7 {
        fill: none;
      }

      .cls-10, .cls-8, .cls-9 {
        stroke: none;
      }

      .cls-9 {
        fill: #0c1116;
      }
    </style>
    <clipPath id="clip-path">
      <path id="main" class="cls-1" d="M8.391,0H39.857a8.324,8.324,0,0,1,8.391,8.254V39.208a8.324,8.324,0,0,1-8.391,8.254H8.391A8.324,8.324,0,0,1,0,39.208V8.254A8.324,8.324,0,0,1,8.391,0Z"/>
    </clipPath>
  </defs>
  <g id="pause" transform="translate(6 65.465) rotate(-90)">
    <path id="ligh" class="cls-2" d="M9.19,0H43.654a9.19,9.19,0,0,1,9.19,9.19V43.655a9.19,9.19,0,0,1-9.19,9.19H9.19A9.19,9.19,0,0,1,0,43.655V9.19A9.19,9.19,0,0,1,9.19,0Z" transform="translate(0.511 1.515)"/>
    <path id="dark" class="cls-3" d="M9.19,0H43.654a9.19,9.19,0,0,1,9.19,9.19V43.655a9.19,9.19,0,0,1-9.19,9.19H9.19A9.19,9.19,0,0,1,0,43.655V9.19A9.19,9.19,0,0,1,9.19,0Z" transform="translate(5.106 6.11)"/>
    <g id="Group_2660" data-name="Group 2660" transform="translate(59.465 0) rotate(90)">
      <g id="location_small" data-name="location small" transform="translate(0 0)">
        <path id="ligh-2" data-name="ligh" class="cls-2" d="M10.342,0H49.124A10.342,10.342,0,0,1,59.466,10.342V49.123A10.342,10.342,0,0,1,49.124,59.465H10.342A10.342,10.342,0,0,1,0,49.123V10.342A10.342,10.342,0,0,1,10.342,0Z" transform="translate(0 0)"/>
      </g>
    </g>
    <path id="main-3" data-name="main" class="cls-4" d="M9.19,0H43.654a9.19,9.19,0,0,1,9.19,9.19V43.655a9.19,9.19,0,0,1-9.19,9.19H9.19A9.19,9.19,0,0,1,0,43.655V9.19A9.19,9.19,0,0,1,9.19,0Z" transform="translate(2.809 3.813)"/>
    <rect id="Rectangle_1671" data-name="Rectangle 1671" class="cls-5" width="4.446" height="13.678" rx="2.223" transform="translate(34.145 22.661) rotate(90)"/>
    <rect id="Rectangle_1672" data-name="Rectangle 1672" class="cls-5" width="4.446" height="13.678" rx="2.223" transform="translate(34.145 32.661) rotate(90)"/>
    <g id="Group_2661" data-name="Group 2661" transform="translate(53.355 54.157) rotate(180)">
      <g id="Mask_Group_63" data-name="Mask Group 63" class="cls-6">
        <g id="dark-2" data-name="dark" class="cls-7">
          <path class="cls-8" d="M9.134,0H43.385a9.082,9.082,0,0,1,9.134,9.029v33.86a9.082,9.082,0,0,1-9.134,9.029H9.134A9.082,9.082,0,0,1,0,42.889V9.029A9.082,9.082,0,0,1,9.134,0Z"/>
          <path class="cls-9" d="M 9.1337890625 1.000003814697266 C 4.648796081542969 1.000003814697266 0.9999961853027344 4.601943969726563 0.9999961853027344 9.029323577880859 L 0.9999961853027344 42.88926315307617 C 0.9999961853027344 47.31664276123047 4.648796081542969 50.91858291625977 9.1337890625 50.91858291625977 L 43.38547897338867 50.91858291625977 C 47.87046813964844 50.91858291625977 51.51927947998047 47.31664276123047 51.51927947998047 42.88926315307617 L 51.51927947998047 9.029323577880859 C 51.51927947998047 4.601943969726563 47.87046813964844 1.000003814697266 43.38547897338867 1.000003814697266 L 9.1337890625 1.000003814697266 M 9.1337890625 3.814697265625e-06 L 43.38547897338867 3.814697265625e-06 C 48.42993927001953 3.814697265625e-06 52.51927947998047 4.042564392089844 52.51927947998047 9.029323577880859 L 52.51927947998047 42.88926315307617 C 52.51927947998047 47.87601470947266 48.42993927001953 51.91858291625977 43.38547897338867 51.91858291625977 L 9.1337890625 51.91858291625977 C 4.089336395263672 51.91858291625977 -3.814697265625e-06 47.87601470947266 -3.814697265625e-06 42.88926315307617 L -3.814697265625e-06 9.029323577880859 C -3.814697265625e-06 4.042564392089844 4.089336395263672 3.814697265625e-06 9.1337890625 3.814697265625e-06 Z"/>
        </g>
      </g>
      <g id="Mask_Group_64" data-name="Mask Group 64" class="cls-6">
        <g id="light" class="cls-7" transform="translate(-5.244 -4.127)">
          <path class="cls-8" d="M9.134,0H43.385a9.082,9.082,0,0,1,9.134,9.029v33.86a9.082,9.082,0,0,1-9.134,9.029H9.134A9.082,9.082,0,0,1,0,42.889V9.029A9.082,9.082,0,0,1,9.134,0Z"/>
          <path class="cls-10" d="M 9.133781433105469 1.000003814697266 C 4.6488037109375 1.000003814697266 1.000003814697266 4.601943969726563 1.000003814697266 9.029323577880859 L 1.000003814697266 42.88926315307617 C 1.000003814697266 47.31664276123047 4.6488037109375 50.91858291625977 9.133781433105469 50.91858291625977 L 43.38546371459961 50.91858291625977 C 47.87044143676758 50.91858291625977 51.51924133300781 47.31664276123047 51.51924133300781 42.88926315307617 L 51.51924133300781 9.029323577880859 C 51.51924133300781 4.601943969726563 47.87044143676758 1.000003814697266 43.38546371459961 1.000003814697266 L 9.133781433105469 1.000003814697266 M 9.133781433105469 3.814697265625e-06 L 43.38546371459961 3.814697265625e-06 C 48.42990112304688 3.814697265625e-06 52.51924133300781 4.042564392089844 52.51924133300781 9.029323577880859 L 52.51924133300781 42.88926315307617 C 52.51924133300781 47.87601470947266 48.42990112304688 51.91858291625977 43.38546371459961 51.91858291625977 L 9.133781433105469 51.91858291625977 C 4.089332580566406 51.91858291625977 3.814697265625e-06 47.87601470947266 3.814697265625e-06 42.88926315307617 L 3.814697265625e-06 9.029323577880859 C 3.814697265625e-06 4.042564392089844 4.089332580566406 3.814697265625e-06 9.133781433105469 3.814697265625e-06 Z"/>
        </g>
      </g>
    </g>
  </g>
</svg>
