<svg id="prev" xmlns="http://www.w3.org/2000/svg" width="16.481" height="12.371" viewBox="0 0 16.481 12.371">
  <defs>
    <style>
      .cls-1 {
        fill: #fff;
      }
    </style>
  </defs>
  <path id="Path_5" data-name="Path 5" class="cls-1" d="M16.481,6.187a1.04,1.04,0,0,1-.251.638l-4.948,5.258a1.063,1.063,0,0,1-1.353.077.967.967,0,0,1,.01-1.353l3.479-3.692H.928a.928.928,0,0,1,0-1.856H13.417L9.938,1.567A1.022,1.022,0,0,1,9.928.214a1.049,1.049,0,0,1,1.353.077L16.23,5.549a.893.893,0,0,1,.251.638Z"/>
</svg>
