<svg xmlns="http://www.w3.org/2000/svg" width="57.246" height="57.246" viewBox="0 0 57.246 57.246">
  <defs>
    <style>
      .cls-1 {
        fill: #4f5d67;
      }

      .cls-1, .cls-2 {
        opacity: 0.5;
      }

      .cls-2 {
        fill: #0a1014;
      }

      .cls-3 {
        fill: #2c384c;
      }

      .cls-4 {
        fill: #fff;
      }
    </style>
  </defs>
  <g id="repeat" transform="translate(6 6)">
    <g id="location_small" data-name="location small">
      <path id="ligh" class="cls-1" d="M7.239,0H34.387a7.239,7.239,0,0,1,7.239,7.239V34.387a7.239,7.239,0,0,1-7.239,7.239H7.239A7.239,7.239,0,0,1,0,34.387V7.239A7.239,7.239,0,0,1,7.239,0Z" transform="translate(0 0)"/>
      <path id="dark" class="cls-2" d="M7.239,0H34.387a7.239,7.239,0,0,1,7.239,7.239V34.387a7.239,7.239,0,0,1-7.239,7.239H7.239A7.239,7.239,0,0,1,0,34.387V7.239A7.239,7.239,0,0,1,7.239,0Z" transform="translate(3.62 3.62)"/>
      <path id="main" class="cls-3" d="M7.239,0H34.387a7.239,7.239,0,0,1,7.239,7.239V34.387a7.239,7.239,0,0,1-7.239,7.239H7.239A7.239,7.239,0,0,1,0,34.387V7.239A7.239,7.239,0,0,1,7.239,0Z" transform="translate(1.81 1.81)"/>
    </g>
    <g id="Group_2649" data-name="Group 2649" transform="translate(13.894 15.608)">
      <g id="group-14svg">
        <g id="path-2">
          <path id="Path_68511" data-name="Path 68511" class="cls-4" d="M26.421,10.087a.551.551,0,0,1-.193.419l-2.134,1.888a.563.563,0,0,1-.366.135.553.553,0,0,1-.363-.971l1-.884h-2.6A4.291,4.291,0,0,0,17.5,14.989a4.369,4.369,0,0,0,4.286,4.337.542.542,0,0,1,.554.54.572.572,0,0,1-.554.572,5.436,5.436,0,0,1-.024-10.871h2.646L23.387,8.7a.555.555,0,0,1-.19-.419.547.547,0,0,1,.135-.363.552.552,0,0,1,.782-.055l2.114,1.81A.557.557,0,0,1,26.421,10.087Z" transform="translate(-16.392 -7.722)"/>
        </g>
      </g>
      <g id="group-14svg-2" data-name="group-14svg" transform="translate(7.306 1.771)">
        <g id="path-2-2" data-name="path-2" transform="translate(0 0)">
          <path id="Path_68512" data-name="Path 68512" class="cls-4" d="M40.316,16.542a5.4,5.4,0,0,1-5.369,5.422H32.3l1.017.871a.552.552,0,0,1-.322.971.248.248,0,0,1-.039,0,.551.551,0,0,1-.364-.135l-2.114-1.81a.559.559,0,0,1-.193-.421.55.55,0,0,1,.193-.416l2.134-1.888a.554.554,0,1,1,.729.835l-1,.884h2.6a4.293,4.293,0,0,0,4.261-4.315,4.368,4.368,0,0,0-4.286-4.337.542.542,0,0,1-.554-.54.573.573,0,0,1,.554-.574A5.429,5.429,0,0,1,40.316,16.542Z" transform="translate(-30.287 -11.091)"/>
        </g>
      </g>
    </g>
  </g>
</svg>
