<svg xmlns="http://www.w3.org/2000/svg" width="31.85" height="31.85" viewBox="0 0 31.85 31.85">
  <defs>
    <style>
      .cls-1 {
        fill: #fff;
      }
    </style>
  </defs>
  <path id="skype" class="cls-1" d="M30.2,51.043a15.476,15.476,0,0,0,.334-3.115,14.593,14.593,0,0,0-14.6-14.6,15.032,15.032,0,0,0-3.115.334A7.954,7.954,0,0,0,1.657,44.814a15.476,15.476,0,0,0-.334,3.115,14.593,14.593,0,0,0,14.6,14.6,15.031,15.031,0,0,0,3.115-.334A7.955,7.955,0,0,0,31.85,55.886a7.844,7.844,0,0,0-1.65-4.843ZM16.362,57.55c-4.665,0-8.569-2.076-8.569-4.622a2,2,0,0,1,2.1-2.176c2.219,0,2.425,3.193,6.265,3.193,1.828,0,3.008-.811,3.008-1.87,0-1.33-1.138-1.536-2.987-1.991-4.444-1.1-8.377-1.564-8.377-6.2,0-4.21,4.167-5.767,7.758-5.767,3.918,0,7.879,1.557,7.879,3.939a2.142,2.142,0,0,1-2.155,2.261c-2.012,0-2.076-2.382-5.333-2.382-1.828,0-2.987.5-2.987,1.6,0,1.408,1.479,1.55,4.914,2.347,2.944.661,6.45,1.906,6.45,5.518,0,4.2-4.06,6.151-7.964,6.151Z" transform="translate(0 -32)"/>
</svg>
