<svg xmlns="http://www.w3.org/2000/svg" width="39.215" height="31.85" viewBox="0 0 39.215 31.85">
  <defs>
    <style>
      .cls-1 {
        fill: #fff;
      }
    </style>
  </defs>
  <path id="twitter" class="cls-1" d="M35.184,56.02c.025.348.025.7.025,1.045,0,10.625-8.087,22.867-22.867,22.867A22.712,22.712,0,0,1,0,76.324a16.629,16.629,0,0,0,1.941.1,16.1,16.1,0,0,0,9.978-3.434A8.051,8.051,0,0,1,4.4,67.416a10.136,10.136,0,0,0,1.518.124,8.5,8.5,0,0,0,2.115-.274,8.038,8.038,0,0,1-6.445-7.888v-.1A8.094,8.094,0,0,0,5.225,60.3,8.049,8.049,0,0,1,2.737,49.55a22.845,22.845,0,0,0,16.572,8.41,9.073,9.073,0,0,1-.2-1.841,8.045,8.045,0,0,1,13.91-5.5,15.824,15.824,0,0,0,5.1-1.941,8.015,8.015,0,0,1-3.533,4.429,16.112,16.112,0,0,0,4.628-1.244A17.277,17.277,0,0,1,35.184,56.02Z" transform="translate(0 -48.082)"/>
</svg>
